<svg width="719" height="737" viewBox="0 0 719 737" fill="none" xmlns="http://www.w3.org/2000/svg">
<path d="M512.187 700.5C585.387 740.1 680.02 739.667 718.187 734.5C716.853 636.667 714.187 428.7 714.187 379.5C552.687 272 466.687 412.5 460.687 417.5C349.187 338.5 265.187 405 253.687 412.5C247.687 404.1 242.853 375.667 241.187 362.5C238.853 311.167 233.587 206.3 231.187 197.5C228.787 188.7 230.187 185.5 231.187 185C240.353 183.5 260.787 178.9 269.187 172.5C277.587 166.1 282.353 169.833 283.687 172.5C284.02 174 288.387 179.7 303.187 190.5C317.987 201.3 331.02 193.333 335.687 188C349.187 172.667 379.987 138 395.187 122C410.387 106 401.52 90 395.187 84L328.187 0C276.353 23.5 169.887 72.3 158.687 79.5C119.087 87.9 111.52 109.333 112.687 119C84.1866 215 25.1867 413.1 17.1867 437.5C7.18671 468 -11.8133 571 10.1867 575C27.7867 578.2 71.8534 608.667 91.6867 623.5C226.087 744.3 428.02 725.167 512.187 700.5Z" fill="#F7E143"/>
</svg>
