<svg width="724" height="750" viewBox="0 0 724 750" fill="none" xmlns="http://www.w3.org/2000/svg">
<path fill-rule="evenodd" clip-rule="evenodd" d="M327.202 0.202778C328.471 -0.341111 329.94 0.246768 330.484 1.51584L334.858 11.7217L399.535 92.8095C402.985 96.128 407.029 102.042 408.228 109.346C409.467 116.889 407.623 125.671 399.499 134.223C384.338 150.181 353.573 184.807 340.066 200.149C337.44 203.149 332.575 206.794 326.296 208.237C319.902 209.707 312.201 208.85 304.213 203.02C296.746 197.572 291.849 193.365 288.75 190.287C287.202 188.75 286.075 187.468 285.295 186.43C284.691 185.627 284.14 184.775 283.863 183.956C283.437 183.221 282.526 182.329 281.111 182.055C279.631 181.768 277.051 182.056 273.202 184.989C268.602 188.494 260.995 191.346 253.676 193.488C246.764 195.51 239.779 196.991 235.081 197.801C235.014 198.038 234.944 198.383 234.902 198.86C234.762 200.423 234.943 203.107 236.098 207.343C236.465 208.688 236.826 211.522 237.197 215.265C237.579 219.106 237.992 224.149 238.427 230.093C239.296 241.985 240.253 257.538 241.207 274.409C243.114 308.111 245.012 347.113 246.179 372.786C247.009 379.317 248.617 389.584 250.753 399.249C251.826 404.107 253.025 408.773 254.313 412.72C255.194 415.42 256.087 417.685 256.964 419.417C259.253 417.518 261.352 416.144 263.047 415.276C263.132 415.232 263.219 415.194 263.306 415.16C274.445 407.903 294.681 396.321 321.669 390.617C358.249 382.887 407.076 385.966 462.555 424.504C462.67 424.498 462.786 424.5 462.901 424.51C463.02 424.359 463.146 424.199 463.278 424.029C463.628 423.582 464.028 423.066 464.471 422.493C465.257 421.478 466.182 420.285 467.215 418.975C470.482 414.831 475.012 409.294 480.792 403.127C492.343 390.802 508.919 375.926 530.46 364.6C552.021 353.264 578.551 345.489 609.939 347.388C641.322 349.286 677.397 360.845 718.072 387.92L719.186 388.662V390.001C719.186 439.179 721.853 647.122 723.186 744.967L723.217 747.181L721.022 747.478C682.754 752.658 588.131 753.151 514.403 713.687C471.914 725.985 400.578 736.748 323.043 729.54C244.927 722.278 160.308 696.75 92.5996 635.936C82.7168 628.548 66.8471 617.302 51.2682 607.504C43.4539 602.59 35.7442 598.06 28.9184 594.569C22.0313 591.045 16.2541 588.69 12.2394 587.96C8.39262 587.261 5.7576 584.419 4.00761 580.778C2.26247 577.147 1.19826 572.353 0.607343 566.887C-0.577974 555.922 0.0698976 541.508 1.70109 526.419C4.96528 496.226 12.2449 462.673 17.311 447.222C25.2833 422.906 84.0855 225.475 112.648 129.266C111.619 117.781 120.824 96.1512 160.233 87.6481C163.542 85.6198 172.238 81.2681 184.022 75.5935C196.403 69.6315 212.393 62.1167 229.645 54.0962C263.512 38.351 302.27 20.644 328.202 8.88242L325.889 3.48544C325.345 2.21636 325.933 0.746668 327.202 0.202778ZM463.372 431.1C469.444 437.037 477.537 446.159 484.455 456.56C492.366 468.455 498.498 481.669 498.687 493.54C498.709 494.921 499.846 496.022 501.226 496C502.607 495.978 503.708 494.841 503.686 493.461C503.475 480.132 496.691 465.929 488.618 453.791C481.493 443.077 473.177 433.696 466.88 427.538C466.989 427.4 467.102 427.256 467.217 427.109C467.596 426.625 468.007 426.094 468.456 425.514C469.228 424.517 470.114 423.374 471.141 422.071C474.355 417.994 478.79 412.575 484.44 406.546C495.748 394.481 511.891 380.013 532.787 369.026C553.664 358.049 579.291 350.543 609.637 352.379C639.707 354.198 674.572 365.199 714.187 391.343C714.217 424.864 715.341 523.352 716.486 614.8C691.092 612.446 673.667 606.249 662.204 599.508C650.314 592.516 644.976 585.034 643.562 580.722L642.998 579.001H641.186H633.686V584.001H639.476C641.996 589.696 648.325 597.147 659.669 603.818C671.965 611.049 690.29 617.456 716.549 619.826C717.131 666.118 717.714 710.254 718.157 742.807C678.919 747.656 587.057 747.309 515.876 708.802L514.971 708.312L513.983 708.602C472.183 720.852 400.975 731.764 323.506 724.561C246.045 717.36 162.536 692.072 95.8578 632.141L95.7741 632.066L95.6839 631.999C85.7269 624.552 69.6956 613.187 53.93 603.272C46.0484 598.315 38.2019 593.701 31.1955 590.117C24.2502 586.564 17.9192 583.911 13.1338 583.041C11.4806 582.74 9.89687 581.489 8.51405 578.612C7.12638 575.725 6.14371 571.578 5.57838 566.349C4.45119 555.923 5.05332 541.931 6.67213 526.957C9.90794 497.026 17.1283 463.828 22.0622 448.78C30.0767 424.335 89.0928 226.179 117.583 130.212L117.73 129.715L117.668 129.201C116.708 121.244 122.905 100.677 161.705 92.4462L162.153 92.3512L162.538 92.1036C165.176 90.4082 173.752 86.0882 186.191 80.0984C198.542 74.151 214.509 66.6471 231.753 58.6301C265.462 42.9584 304.025 25.3391 329.946 13.5815L395.732 96.0595L395.841 96.1957L395.967 96.3155C398.823 99.0215 402.292 104.051 403.294 110.156C404.272 116.112 402.95 123.33 395.874 130.779C380.636 146.819 349.804 181.522 336.31 196.849L336.305 196.854C334.263 199.188 330.28 202.191 325.176 203.364C320.187 204.511 313.972 203.952 307.16 198.981C299.827 193.63 295.14 189.586 292.273 186.739C290.838 185.314 289.885 184.215 289.291 183.424C288.863 182.857 288.694 182.542 288.638 182.439C288.624 182.412 288.617 182.4 288.615 182.4C288.615 182.4 288.615 182.403 288.616 182.408L288.56 182.158L288.422 181.883C287.469 179.976 285.357 177.785 282.062 177.146C278.725 176.5 274.722 177.545 270.171 181.012C266.371 183.908 259.561 186.556 252.272 188.689C245.08 190.794 237.781 192.297 233.283 193.033L232.908 193.095L232.568 193.265C231.62 193.739 231.021 194.59 230.657 195.38C230.587 195.531 230.522 195.689 230.461 195.853C229.201 194.949 227.773 194.219 226.34 193.627C222.562 192.068 218.253 191.277 215.42 191.012C214.045 190.883 212.826 191.893 212.697 193.267C212.568 194.642 213.578 195.861 214.953 195.99C217.453 196.224 221.244 196.933 224.433 198.249C226.026 198.907 227.348 199.667 228.276 200.497C229.191 201.315 229.61 202.09 229.708 202.831C229.772 203.309 229.967 203.738 230.252 204.085C230.479 205.448 230.813 206.968 231.275 208.658C231.508 209.513 231.837 211.881 232.222 215.759C232.597 219.537 233.007 224.531 233.44 230.458C234.306 242.308 235.262 257.83 236.215 274.692C238.123 308.413 240.023 347.453 241.189 373.114L241.194 373.215L241.206 373.315C242.047 379.955 243.684 390.433 245.87 400.328C246.963 405.274 248.202 410.113 249.56 414.272C250.638 417.575 251.836 420.592 253.167 422.908C246.143 430.019 238.468 441.578 235.233 458.018C232.925 469.754 228.322 475.074 224.042 477.31C219.689 479.583 215.079 478.979 212.191 477.712C210.927 477.156 209.452 477.731 208.897 478.996C208.342 480.26 208.917 481.735 210.181 482.29C214.127 484.022 220.368 484.869 226.356 481.742C232.417 478.577 237.648 471.648 240.139 458.983C243.684 440.965 252.881 429.435 259.786 423.574C259.831 423.543 259.876 423.512 259.921 423.481L259.922 423.48C268.383 417.633 290.573 402.3 322.703 395.509C358.419 387.961 406.578 390.957 461.741 430.041L463.31 431.152L463.372 431.1ZM158.206 571.026C193.184 616.431 295.383 697.914 424.393 659.899C425.717 659.508 426.475 658.118 426.084 656.794C425.694 655.47 424.304 654.712 422.98 655.103C296.79 692.287 196.522 612.571 162.167 567.975L158.206 571.026ZM235.231 197.408C235.24 197.396 235.243 197.389 235.243 197.388C235.243 197.388 235.242 197.39 235.239 197.394C235.237 197.397 235.234 197.402 235.231 197.408Z" fill="black"/>
</svg>
