<svg width="719" height="750" viewBox="0 0 719 750" fill="none" xmlns="http://www.w3.org/2000/svg">
<path d="M158.519 571.026C193.497 616.43 295.696 697.914 424.707 659.898C426.031 659.508 426.788 658.118 426.398 656.794C426.008 655.469 424.618 654.712 423.293 655.102C297.103 692.287 196.836 612.57 162.48 567.974L158.519 571.026Z" fill="black"/>
<path fill-rule="evenodd" clip-rule="evenodd" d="M327.515 0.20229C328.784 -0.341599 330.254 0.24628 330.798 1.51535L335.172 11.7212L399.849 92.809C403.298 96.1275 407.343 102.041 408.542 109.345C409.78 116.889 407.936 125.67 399.812 134.222C384.652 150.181 353.887 184.807 340.379 200.149C337.754 203.148 332.888 206.793 326.61 208.237C320.216 209.706 312.515 208.849 304.526 203.02C297.06 197.571 292.163 193.365 289.063 190.287C287.515 188.749 286.389 187.467 285.608 186.429C285.004 185.627 284.454 184.774 284.176 183.956C283.75 183.221 282.84 182.329 281.424 182.055C279.944 181.768 277.365 182.056 273.515 184.989C268.915 188.493 261.309 191.345 253.99 193.487C247.078 195.51 240.092 196.99 235.395 197.801C235.328 198.038 235.258 198.382 235.215 198.86C235.076 200.423 235.257 203.107 236.412 207.342C236.779 208.688 237.139 211.522 237.511 215.264C237.892 219.106 238.306 224.149 238.74 230.093C239.609 241.984 240.566 257.538 241.521 274.409C243.427 308.11 245.325 347.112 246.493 372.786C247.323 379.317 248.93 389.584 251.066 399.248C252.14 404.106 253.338 408.773 254.626 412.72C255.508 415.42 256.401 417.684 257.277 419.417C259.567 417.518 261.665 416.143 263.36 415.275C263.446 415.231 263.532 415.193 263.62 415.16C274.759 407.903 294.994 396.32 321.983 390.617C358.562 382.886 407.39 385.966 462.869 424.504C462.984 424.498 463.099 424.499 463.214 424.509C463.333 424.358 463.459 424.198 463.592 424.028C463.942 423.581 464.341 423.065 464.785 422.492C465.571 421.478 466.495 420.284 467.528 418.975C470.796 414.831 475.326 409.293 481.105 403.126C492.657 390.801 509.233 375.926 530.774 364.6C552.335 353.264 578.864 345.489 610.252 347.388C641.636 349.286 677.711 360.845 718.385 387.919L719.5 388.661V390C719.5 439.178 722.166 647.121 723.5 744.966L723.53 747.18L721.336 747.478C683.068 752.658 588.445 753.151 514.717 713.687C472.227 725.984 400.892 736.748 323.356 729.539C245.24 722.277 160.621 696.75 92.913 635.935C83.0302 628.548 67.1606 617.301 51.5817 607.504C43.7674 602.59 36.0577 598.06 29.2318 594.568C22.3448 591.045 16.5675 588.69 12.5529 587.96C8.7061 587.26 6.07107 584.418 4.32109 580.778C2.57594 577.147 1.51173 572.352 0.920819 566.886C-0.264498 555.922 0.383374 541.508 2.01457 526.419C5.27876 496.225 12.5584 462.673 17.6245 447.221C25.5968 422.906 84.399 225.475 112.962 129.265C111.932 117.78 121.137 96.1507 160.546 87.6476C163.856 85.6193 172.551 81.2676 184.336 75.593C196.717 69.6311 212.707 62.1162 229.958 54.0957C263.825 38.3505 302.584 20.6435 328.515 8.88193L326.202 3.48495C325.658 2.21588 326.246 0.746179 327.515 0.20229ZM463.685 431.1C469.757 437.036 477.851 446.158 484.768 456.56C492.679 468.455 498.812 481.669 499 493.54C499.022 494.92 500.159 496.022 501.54 496C502.92 495.978 504.021 494.841 504 493.46C503.788 480.132 497.004 465.929 488.932 453.791C481.806 443.077 473.49 433.695 467.194 427.538C467.303 427.399 467.415 427.256 467.531 427.108C467.909 426.624 468.32 426.093 468.77 425.513C469.542 424.516 470.427 423.373 471.454 422.071C474.669 417.994 479.104 412.574 484.754 406.546C496.062 394.48 512.204 380.012 533.101 369.025C553.978 358.049 579.605 350.543 609.951 352.378C640.02 354.197 674.886 365.199 714.501 391.343C714.531 424.864 715.654 523.351 716.8 614.799C691.405 612.446 673.981 606.249 662.517 599.508C650.628 592.516 645.289 585.034 643.875 580.721L643.311 579H634V584H639.789C642.309 589.695 648.638 597.147 659.983 603.818C672.278 611.048 690.604 617.456 716.863 619.826C717.445 666.118 718.027 710.254 718.47 742.807C679.232 747.655 587.37 747.309 516.19 708.801L515.285 708.312L514.297 708.601C472.496 720.852 401.288 731.763 323.819 724.561C246.359 717.36 162.849 692.072 96.1713 632.141L96.0876 632.066L95.9974 631.998C86.0404 624.551 70.009 613.186 54.2435 603.271C46.3619 598.315 38.5154 593.701 31.509 590.117C24.5637 586.564 18.2326 583.911 13.4473 583.041C11.7941 582.74 10.2104 581.488 8.82752 578.611C7.43986 575.725 6.45719 571.578 5.89185 566.349C4.76467 555.922 5.3668 541.93 6.9856 526.956C10.2214 497.025 17.4418 463.827 22.3757 448.779C30.3902 424.335 89.4063 226.179 117.897 130.212L118.044 129.715L117.982 129.201C117.022 121.244 123.218 100.676 162.019 92.4457L162.467 92.3507L162.852 92.1031C165.489 90.4077 174.066 86.0877 186.505 80.0979C198.856 74.1505 214.822 66.6466 232.066 58.6296C265.775 42.9579 304.339 25.3387 330.259 13.581L396.154 96.1952L396.281 96.315C399.137 99.021 402.606 104.051 403.608 110.155C404.586 116.112 403.263 123.33 396.187 130.778C380.949 146.819 350.118 181.521 336.624 196.848L336.618 196.854C334.577 199.187 330.593 202.191 325.49 203.364C320.501 204.511 314.285 203.951 307.474 198.981C300.14 193.629 295.454 189.586 292.586 186.739C291.151 185.314 290.199 184.214 289.604 183.424C289.177 182.856 289.007 182.542 288.952 182.438C288.937 182.412 288.931 182.399 288.929 182.4C288.928 182.4 288.928 182.403 288.929 182.408L288.874 182.157L288.736 181.882C287.783 179.976 285.671 177.784 282.375 177.146C279.039 176.499 275.035 177.545 270.485 181.012C266.684 183.907 259.875 186.555 252.585 188.688C245.393 190.793 238.094 192.297 233.596 193.033L233.221 193.094L232.882 193.264C231.934 193.738 231.335 194.59 230.971 195.379C230.901 195.531 230.835 195.689 230.774 195.852C229.514 194.949 228.087 194.218 226.654 193.627C222.876 192.068 218.567 191.277 215.733 191.011C214.359 190.882 213.14 191.892 213.011 193.267C212.882 194.641 213.892 195.86 215.267 195.989C217.766 196.224 221.557 196.933 224.746 198.249C226.34 198.906 227.661 199.666 228.59 200.497C229.504 201.314 229.923 202.09 230.022 202.831C230.086 203.309 230.281 203.737 230.566 204.085C230.793 205.448 231.127 206.967 231.588 208.658C231.821 209.513 232.15 211.881 232.535 215.758C232.91 219.536 233.32 224.531 233.753 230.457C234.62 242.308 235.575 257.829 236.529 274.691C238.437 308.412 240.336 347.453 241.502 373.114L241.507 373.214L241.52 373.314C242.36 379.955 243.997 390.432 246.184 400.327C247.277 405.273 248.516 410.113 249.873 414.271C250.952 417.575 252.149 420.591 253.48 422.908C246.457 430.018 238.781 441.577 235.547 458.018C233.238 469.753 228.636 475.074 224.355 477.309C220.002 479.582 215.393 478.979 212.505 477.711C211.241 477.156 209.766 477.731 209.211 478.995C208.656 480.259 209.231 481.734 210.495 482.289C214.441 484.022 220.681 484.868 226.67 481.741C232.731 478.576 237.961 471.647 240.453 458.983C243.997 440.965 253.195 429.435 260.1 423.574C260.144 423.543 260.189 423.512 260.235 423.48C268.696 417.633 290.886 402.299 323.017 395.509C358.732 387.961 406.892 390.956 462.055 430.04L463.623 431.152L463.685 431.1ZM235.544 197.407C235.553 197.395 235.557 197.388 235.557 197.388C235.557 197.388 235.555 197.389 235.553 197.393C235.551 197.397 235.548 197.401 235.544 197.407Z" fill="black"/>
</svg>
