<svg width="24" height="24" viewBox="0 0 24 24" fill="none" xmlns="http://www.w3.org/2000/svg">
<path d="M20.0002 10.999H22.0002C22.0002 5.869 18.1272 2 12.9902 2V4C17.0522 4 20.0002 6.943 20.0002 10.999Z" fill="white"/>
<path fill-rule="evenodd" clip-rule="evenodd" d="M15.7181 13.1835C15.9776 13.1754 16.2301 13.2686 16.4223 13.4432L20.4863 17.1392C20.6788 17.3143 20.7954 17.5576 20.8115 17.8173C20.8276 18.077 20.7417 18.3328 20.5723 18.5302L18.7123 20.7012C18.5396 20.8749 18.3088 20.9786 18.0643 20.9922C18.0313 20.9942 17.9073 21.0002 17.7053 21.0002C16.3233 21.0002 11.3053 20.7072 7.29928 16.7022C2.70728 12.1082 2.99328 6.18624 3.00828 5.93624C3.0222 5.69169 3.12539 5.46075 3.29828 5.28724L5.46828 3.42624C5.66588 3.2569 5.92171 3.17125 6.18143 3.1875C6.44116 3.20374 6.68432 3.3206 6.85928 3.51324L10.5543 7.57624C10.7292 7.76828 10.8225 8.02083 10.8144 8.28045C10.8064 8.54006 10.6977 8.78637 10.5113 8.96724L8.05228 11.3612C8.15928 11.9332 8.52028 13.0942 9.71228 14.2872C10.9043 15.4762 12.0623 15.8372 12.6383 15.9472L15.0313 13.4862C15.2123 13.3001 15.4585 13.1915 15.7181 13.1835Z" fill="white"/>
<path d="M17 11H19C19 7.5 16.2097 5 13 5V7C15.5 7 17 9 17 11Z" fill="#F7E143"/>
</svg>
