<svg width="143" height="140" viewBox="0 0 143 140" fill="none" xmlns="http://www.w3.org/2000/svg">
<path d="M0.977789 10.5L0.524603 0.529916L8.64827 0.981231L12.2745 10.5H0.977789Z" fill="#AE9A09" stroke="#D6CC84"/>
<path d="M141.516 127.902L141.979 139H129.5V125.129L141.516 127.902Z" fill="#AE9A09" stroke="#C5B74F"/>
<path d="M77.5 0H0.5L142.5 140V58.5L77.5 0Z" fill="#F7E143"/>
<path d="M84.1321 30.2181C83.6276 30.7185 83.0825 31.0545 82.4967 31.2263C81.9295 31.4168 81.3775 31.4992 80.8406 31.4736C80.315 31.4369 79.8417 31.3297 79.4208 31.1519C79.0185 30.9929 78.7243 30.8197 78.5383 30.6321C78.2779 30.3696 78.094 30.0497 77.9868 29.6724C77.8907 29.2841 77.9043 29.0287 78.0276 28.9064C78.207 28.7285 78.4176 28.7615 78.6594 29.0053C78.7524 29.0991 78.823 29.2151 78.8711 29.3533C78.9305 29.4804 78.9862 29.5926 79.0382 29.6899C79.5113 29.8531 80.0668 29.8974 80.7045 29.8229C81.3609 29.7672 82.0198 29.4113 82.6812 28.7553C82.9503 28.4884 83.1448 28.2025 83.2648 27.8975C83.3848 27.5924 83.4526 27.302 83.4681 27.0262C83.5023 26.7691 83.4935 26.536 83.4417 26.3269C83.39 26.1178 83.3362 25.9851 83.2804 25.9289C83.0944 25.7413 82.7963 25.665 82.3861 25.6998C81.9945 25.7534 81.5878 25.8591 81.1661 26.0169C80.7557 26.1636 80.3638 26.329 79.9905 26.5132C79.6471 26.705 79.4249 26.851 79.324 26.9511C79.2753 27.0365 79.2323 27.1164 79.1948 27.1908C79.1574 27.2651 79.1199 27.3395 79.0825 27.4138C79.045 27.4882 78.9983 27.5532 78.9422 27.6087C78.7292 27.82 78.4177 27.8871 78.0077 27.8101C77.5978 27.7331 77.2812 27.582 77.058 27.357C76.9464 27.2445 76.8982 27.1062 76.9135 26.9422C76.9586 26.7859 77.0354 26.6167 77.1439 26.4347C77.2525 26.2526 77.3666 26.065 77.4864 25.8718C77.6247 25.6974 77.737 25.5303 77.8231 25.3705C77.8761 25.0203 78.0003 24.5065 78.1957 23.8291C78.3911 23.1516 78.5959 22.4276 78.8102 21.6571C79.0543 20.8942 79.2908 20.1573 79.5199 19.4465C79.7675 18.7545 79.9757 18.2132 80.1443 17.8227C80.4893 16.9597 80.8209 16.2402 81.1391 15.6642C81.45 15.0583 81.7364 14.551 81.9983 14.1425C82.2528 13.704 82.4941 13.3531 82.7221 13.0897C82.9502 12.8264 83.1483 12.6113 83.3164 12.4445C83.4173 12.3444 83.5702 12.3416 83.7751 12.4361C83.9613 12.5117 84.1103 12.6058 84.2219 12.7184C84.3893 12.8872 84.4877 13.0313 84.5173 13.1508C84.5581 13.2592 84.5354 13.3933 84.4493 13.5531C84.3446 13.6941 84.1931 13.9002 83.9949 14.1712C83.778 14.4234 83.5106 14.7816 83.1927 15.2458C83.0393 15.4723 82.8409 15.7993 82.5976 16.2266C82.3729 16.6727 82.1368 17.1858 81.8894 17.766C81.6421 18.3462 81.3815 18.958 81.1079 19.6014C80.8641 20.2525 80.6371 20.8869 80.4269 21.5045C80.2353 22.141 80.068 22.7347 79.9251 23.2857C79.8008 23.8554 79.7307 24.3341 79.7149 24.7218C80.2859 24.4903 80.8549 24.3353 81.4218 24.2566C81.8955 24.1961 82.3932 24.2047 82.915 24.2823C83.4481 24.3489 83.9285 24.5979 84.3563 25.0292C84.5237 25.198 84.7021 25.4675 84.8914 25.8378C85.0807 26.2081 85.1991 26.6301 85.2465 27.1039C85.3125 27.5965 85.2647 28.1089 85.1032 28.6411C84.9603 29.1921 84.6366 29.7178 84.1321 30.2181Z" fill="black"/>
<path d="M92.9041 42.2243C92.9003 42.2652 92.876 42.308 92.8311 42.3525C92.7638 42.4192 92.5792 42.4348 92.2773 42.3995C92.1767 42.3877 91.9829 42.3381 91.696 42.2506C91.4091 42.1631 91.0571 42.01 90.64 41.7912C90.2229 41.5725 89.7426 41.2676 89.1991 40.8766C88.6742 40.5043 88.1048 40.0087 87.491 39.3898C87.0632 38.9585 86.7007 38.4809 86.4036 37.9571C86.1177 37.4222 85.9288 36.8841 85.8368 36.3429C85.756 35.7906 85.7815 35.2445 85.9132 34.7047C86.0561 34.1537 86.3574 33.6503 86.8171 33.1944C87.2543 32.7608 87.7565 32.4487 88.3236 32.2582C88.8908 32.0677 89.4597 31.9686 90.0301 31.9608C90.6192 31.9718 91.1746 32.072 91.6961 32.2616C92.2177 32.4511 92.6459 32.7147 92.9807 33.0523C93.2783 33.3524 93.5367 33.6913 93.7558 34.0692C94.0048 34.4548 94.1941 34.8251 94.3238 35.1801C94.4721 35.5538 94.5478 35.888 94.5508 36.1825C94.5651 36.466 94.4994 36.68 94.3536 36.8246C94.1855 36.9913 93.8815 37.0324 93.4417 36.9477C93.0205 36.8818 92.5548 36.7485 92.0444 36.5479C91.5453 36.3361 91.0685 36.1021 90.6142 35.8458C90.1711 35.5784 89.8473 35.3416 89.6427 35.1353C89.5311 35.0227 89.4568 34.8918 89.4198 34.7424C89.4127 34.6007 89.454 34.4854 89.5437 34.3964C89.7006 34.2407 89.9355 34.231 90.2484 34.3671C90.5799 34.5219 90.9188 34.7067 91.2651 34.9213C91.6226 35.1247 91.9634 35.289 92.2875 35.414C92.6302 35.5577 92.8912 35.5406 93.0706 35.3627C93.093 35.3405 93.1026 35.238 93.0992 35.0553C93.0959 34.8726 92.8897 34.5749 92.4804 34.1623C92.2944 33.9748 92.0133 33.8258 91.6369 33.7154C91.2718 33.5939 90.8655 33.5318 90.4181 33.5291C89.9819 33.5153 89.538 33.5835 89.0865 33.7337C88.6463 33.8728 88.2523 34.1146 87.9048 34.4593C87.6133 34.7484 87.4336 35.0941 87.3656 35.4964C87.3161 35.9174 87.3469 36.352 87.4577 36.8001C87.5798 37.2371 87.782 37.6876 88.0643 38.1516C88.3466 38.6156 88.6831 39.0446 89.0737 39.4384C89.3527 39.7197 89.6839 39.9865 90.0674 40.2386C90.4807 40.4983 90.8661 40.7299 91.2236 40.9334C91.6109 41.1445 91.9404 41.3199 92.2123 41.4595C92.514 41.6067 92.6927 41.7084 92.7485 41.7647C92.8043 41.821 92.8433 41.8939 92.8655 41.9835C92.9063 42.0919 92.9191 42.1721 92.9041 42.2243Z" fill="black"/>
<path d="M101.607 50.0906C101.416 50.2796 101.136 50.3338 100.767 50.2533C100.428 50.1805 100.041 50.0253 99.605 49.7878C99.1991 49.5579 98.7728 49.2738 98.3262 48.9356C97.8795 48.5973 97.4626 48.2667 97.0756 47.9437C96.6998 47.6096 96.3667 47.3075 96.0765 47.0373C95.8161 46.7747 95.6487 46.6059 95.5743 46.5309C95.1651 46.1183 94.8881 45.7606 94.7434 45.4577C94.5986 45.1548 94.6272 44.9033 94.829 44.7032C94.8962 44.6365 94.9616 44.5902 95.025 44.5645C95.0997 44.5277 95.2021 44.5749 95.3323 44.7062C95.3881 44.7624 95.4699 44.8673 95.5777 45.0209C95.6967 45.1633 95.7934 45.272 95.8678 45.347C95.9422 45.422 96.1803 45.6509 96.5821 46.0336C97.0138 46.424 97.4752 46.8219 97.9665 47.2276C98.4763 47.652 98.9472 48.0034 99.3791 48.2819C99.8408 48.568 100.139 48.6444 100.273 48.511C100.296 48.4887 100.168 48.2251 99.8893 47.7201C99.6406 47.2227 99.2751 46.4505 98.7927 45.4036C98.4217 44.5811 98.2274 43.9368 98.2098 43.4706C98.2035 42.9933 98.3964 42.56 98.7888 42.1709C99.0355 41.9263 99.321 41.8105 99.6453 41.8237C99.9883 41.8555 100.353 41.977 100.741 42.1882C101.147 42.418 101.562 42.7132 101.986 43.0737C102.44 43.4418 102.89 43.8509 103.337 44.301C103.374 44.3385 103.474 44.4622 103.638 44.672C103.82 44.9005 103.995 45.1551 104.162 45.4358C104.34 45.7053 104.474 45.9633 104.563 46.21C104.681 46.4642 104.696 46.6358 104.606 46.7248C104.584 46.747 104.513 46.7429 104.394 46.7123C104.293 46.7005 104.107 46.6808 103.835 46.6531C103.79 46.5857 103.705 46.4658 103.578 46.2936C103.47 46.1401 103.335 45.9584 103.171 45.7486C103.037 45.5465 102.883 45.3461 102.708 45.1474C102.545 44.9376 102.407 44.7765 102.296 44.6639C101.812 44.1763 101.365 43.8381 100.956 43.6492C100.557 43.4492 100.206 43.4993 99.9037 43.7995C99.758 43.9441 99.7165 44.1713 99.7791 44.4811C99.8604 44.8097 99.9938 45.1796 100.179 45.5909C100.376 45.991 100.586 46.4155 100.808 46.8643C101.061 47.3207 101.274 47.7601 101.449 48.1824C101.623 48.6048 101.73 48.982 101.77 49.3141C101.841 49.6539 101.786 49.9127 101.607 50.0906Z" fill="black"/>
<path d="M116.768 54.615C116.358 54.538 115.846 54.3578 115.231 54.0745C114.628 53.78 114.036 53.4745 113.455 53.1578C112.874 52.8411 112.366 52.564 111.93 52.3265C111.506 52.0779 111.276 51.9702 111.243 52.0036C111.209 52.0369 111.146 52.1745 111.052 52.4163C110.958 52.6581 110.84 52.9427 110.697 53.2699C110.585 53.6048 110.461 53.9508 110.326 54.308C110.191 54.6651 110.065 54.9757 109.949 55.2398C109.874 55.3884 109.775 55.5799 109.651 55.814C109.528 56.0482 109.395 56.273 109.253 56.4884C109.129 56.7226 109.013 56.9307 108.905 57.1127C108.807 57.2837 108.753 57.3747 108.742 57.3858C108.574 57.5526 108.353 57.6781 108.081 57.7622C107.809 57.8463 107.57 57.7852 107.366 57.5789C107.254 57.4664 107.18 57.3355 107.143 57.1861C107.106 57.0367 107.084 56.8912 107.077 56.7494C107.081 56.5966 107.098 56.4681 107.128 56.3638C107.158 56.2596 107.19 56.1908 107.223 56.1575C107.246 56.1352 107.279 56.1019 107.324 56.0574C107.388 56.0317 107.447 55.991 107.504 55.9354C107.717 55.7242 107.969 55.3621 108.261 54.8493C108.347 54.6895 108.463 54.4255 108.61 54.0572C108.756 53.689 108.908 53.3151 109.065 52.9358C109.249 52.4932 109.442 52.004 109.644 51.4683C109.727 51.2376 109.759 51.1129 109.74 51.0941C109.61 50.9629 109.337 50.7878 108.919 50.5691C108.532 50.358 108.07 50.1278 107.534 49.8785C107.009 49.618 106.448 49.3555 105.852 49.091C105.268 48.8153 104.716 48.5622 104.199 48.3316C103.692 48.09 103.258 47.8879 102.897 47.7254C102.528 47.533 102.316 47.4087 102.26 47.3524C102.018 47.1086 101.873 46.8617 101.825 46.6116C101.778 46.3615 101.815 46.1753 101.939 46.053C102.006 45.9863 102.259 46.0512 102.699 46.2477C103.131 46.4143 103.658 46.6542 104.28 46.9674C104.883 47.2619 105.539 47.5976 106.246 47.9747C106.935 48.3331 107.57 48.6706 108.151 48.9873C108.751 49.3227 109.244 49.596 109.631 49.8071C110.037 50.037 110.24 50.1519 110.24 50.1519C110.589 49.4717 110.909 48.8751 111.201 48.3623C111.455 47.9239 111.682 47.5132 111.88 47.1304C112.097 46.7662 112.217 46.5731 112.239 46.5508C112.385 46.4063 112.538 46.3476 112.698 46.3746C112.889 46.4093 113.049 46.4923 113.179 46.6236C113.384 46.8299 113.43 47.0445 113.317 47.2676C112.917 48.0743 112.564 48.7956 112.261 49.4313C111.976 50.0859 111.772 50.6421 111.648 51.1C111.837 51.2465 112.187 51.476 112.697 51.7886C113.219 52.09 113.764 52.4046 114.334 52.7324C114.904 53.0602 115.41 53.3578 115.853 53.6252C116.326 53.9002 116.591 54.0658 116.646 54.1221C116.758 54.2346 116.801 54.3225 116.774 54.3857C116.767 54.4677 116.765 54.5441 116.768 54.615Z" fill="black"/>
<path d="M66.0561 39.4359C65.8655 39.6249 65.5857 39.6792 65.2168 39.5987C64.8776 39.5258 64.4902 39.3706 64.0545 39.1331C63.6486 38.9032 63.2223 38.6191 62.7757 38.2809C62.329 37.9426 61.9121 37.612 61.5251 37.2891C61.1493 36.955 60.8162 36.6528 60.526 36.3826C60.2656 36.1201 60.0982 35.9513 60.0238 35.8762C59.6146 35.4637 59.3376 35.1059 59.1929 34.803C59.0482 34.5001 59.0767 34.2486 59.2785 34.0485C59.3457 33.9818 59.4111 33.9356 59.4745 33.9098C59.5492 33.873 59.6516 33.9202 59.7818 34.0515C59.8376 34.1078 59.9194 34.2127 60.0272 34.3662C60.1462 34.5086 60.2429 34.6173 60.3173 34.6923C60.3917 34.7673 60.6298 34.9962 61.0316 35.3789C61.4633 35.7693 61.9247 36.1673 62.416 36.5729C62.9258 36.9973 63.3967 37.3487 63.8286 37.6272C64.2903 37.9134 64.5884 37.9897 64.7229 37.8563C64.7454 37.8341 64.6173 37.5704 64.3388 37.0654C64.0901 36.568 63.7246 35.7958 63.2422 34.7489C62.8712 33.9264 62.6769 33.2821 62.6593 32.8159C62.653 32.3386 62.846 31.9054 63.2383 31.5162C63.485 31.2716 63.7705 31.1558 64.0948 31.169C64.4378 31.2009 64.8029 31.3224 65.1902 31.5335C65.5961 31.7633 66.0112 32.0585 66.4354 32.419C66.8895 32.7871 67.3397 33.1962 67.7861 33.6464C67.8233 33.6839 67.9237 33.8075 68.0873 34.0173C68.2695 34.2458 68.4442 34.5004 68.6113 34.7811C68.7897 35.0506 68.9233 35.3087 69.0122 35.5553C69.131 35.8095 69.1455 35.9811 69.0558 36.0701C69.0334 36.0923 68.9626 36.0882 68.8433 36.0576C68.7427 36.0459 68.5563 36.0261 68.2842 35.9984C68.2396 35.931 68.1541 35.8112 68.0277 35.6389C67.9199 35.4854 67.7842 35.3037 67.6207 35.0939C67.4869 34.8918 67.3326 34.6914 67.1578 34.4927C66.9942 34.2829 66.8566 34.1218 66.745 34.0093C66.2614 33.5216 65.8148 33.1834 65.405 32.9945C65.0065 32.7945 64.6559 32.8446 64.3532 33.1448C64.2075 33.2894 64.166 33.5166 64.2287 33.8264C64.3099 34.155 64.4433 34.525 64.6288 34.9362C64.8256 35.3364 65.0353 35.7608 65.258 36.2096C65.5105 36.666 65.7239 37.1054 65.8982 37.5277C66.0725 37.9501 66.1797 38.3274 66.22 38.6594C66.2901 38.9992 66.2354 39.258 66.0561 39.4359Z" fill="black"/>
<path d="M75.7453 50.1134C75.7415 50.1543 75.7171 50.1971 75.6723 50.2416C75.605 50.3083 75.4204 50.3239 75.1185 50.2886C75.0179 50.2768 74.8241 50.2272 74.5372 50.1397C74.2503 50.0522 73.8983 49.8991 73.4812 49.6803C73.0641 49.4616 72.5838 49.1567 72.0403 48.7657C71.5154 48.3934 70.946 47.8978 70.3322 47.2789C69.9044 46.8476 69.5419 46.37 69.2448 45.8462C68.9589 45.3113 68.77 44.7732 68.678 44.232C68.5972 43.6797 68.6227 43.1336 68.7544 42.5938C68.8973 42.0428 69.1986 41.5394 69.6583 41.0835C70.0955 40.6499 70.5977 40.3378 71.1648 40.1473C71.732 39.9568 72.3008 39.8577 72.8713 39.8499C73.4604 39.8609 74.0158 39.9611 74.5373 40.1507C75.0589 40.3402 75.4871 40.6038 75.8219 40.9414C76.1195 41.2415 76.3779 41.5804 76.597 41.9583C76.846 42.3439 77.0353 42.7141 77.165 43.0691C77.3133 43.4429 77.389 43.7771 77.392 44.0716C77.4063 44.3551 77.3406 44.5691 77.1948 44.7136C77.0267 44.8804 76.7227 44.9215 76.2829 44.8368C75.8617 44.7709 75.396 44.6376 74.8856 44.437C74.3865 44.2252 73.9097 43.9912 73.4554 43.7349C73.0123 43.4675 72.6885 43.2307 72.4839 43.0244C72.3723 42.9118 72.298 42.7809 72.261 42.6315C72.2539 42.4898 72.2952 42.3745 72.3849 42.2855C72.5418 42.1298 72.7767 42.1201 73.0896 42.2562C73.4211 42.411 73.76 42.5957 74.1063 42.8104C74.4638 43.0138 74.8046 43.1781 75.1287 43.3031C75.4714 43.4468 75.7324 43.4297 75.9118 43.2518C75.9342 43.2296 75.9437 43.1271 75.9404 42.9444C75.9371 42.7616 75.7309 42.464 75.3216 42.0514C75.1356 41.8638 74.8545 41.7149 74.4781 41.6045C74.113 41.483 73.7067 41.4209 73.2593 41.4182C72.8231 41.4044 72.3792 41.4726 71.9277 41.6228C71.4875 41.7619 71.0935 42.0037 70.746 42.3484C70.4545 42.6375 70.2748 42.9832 70.2068 43.3855C70.1573 43.8065 70.1881 44.2411 70.2989 44.6892C70.421 45.1262 70.6232 45.5767 70.9055 46.0407C71.1878 46.5047 71.5243 46.9337 71.9149 47.3275C72.1939 47.6088 72.5251 47.8756 72.9086 48.1277C73.3219 48.3874 73.7073 48.619 74.0648 48.8225C74.4521 49.0336 74.7816 49.209 75.0535 49.3486C75.3552 49.4958 75.5339 49.5975 75.5897 49.6538C75.6455 49.7101 75.6845 49.783 75.7067 49.8726C75.7475 49.981 75.7603 50.0612 75.7453 50.1134Z" fill="black"/>
<path d="M80.1488 57.1094C80.0591 57.1984 79.9361 57.2088 79.7796 57.1408C79.6232 57.0727 79.4705 56.9637 79.3217 56.8136C79.1543 56.6448 79.0729 56.3722 79.0775 55.9956C79.1007 55.6378 79.1743 55.2299 79.2984 54.7721C79.4224 54.3142 79.5782 53.8435 79.7658 53.3599C79.9645 52.8651 80.1538 52.417 80.3337 52.0154C80.5248 51.6026 80.684 51.2587 80.8114 50.9835C80.9574 50.7271 81.0416 50.5878 81.064 50.5656C81.1089 50.5211 81.1894 50.3668 81.3055 50.1028C81.4403 49.8575 81.6537 49.4785 81.9457 48.9657C82.2563 48.4716 82.666 47.8421 83.1748 47.077C83.7134 46.3196 84.3941 45.4027 85.2168 44.3263C85.3177 44.2262 85.4745 44.1265 85.6873 44.0271C85.9 43.9277 86.1087 43.9811 86.3133 44.1874C86.5737 44.45 86.6625 44.7526 86.5797 45.0951C86.5155 45.4564 86.3637 45.8302 86.1242 46.2165C85.9033 46.6216 85.6376 47.0153 85.3273 47.3975C85.0282 47.7686 84.7776 48.1101 84.5756 48.4221C84.2912 48.8529 84.0312 49.241 83.7955 49.5863C83.5785 49.9505 83.3521 50.3052 83.1164 50.6505C82.9105 51.0035 82.6971 51.3826 82.4762 51.7877C82.2739 52.2115 82.0566 52.6875 81.8243 53.2156L80.1488 57.1094Z" fill="black"/>
<path d="M86.0341 63.0434C85.9445 63.1324 85.8214 63.1428 85.6649 63.0748C85.5085 63.0067 85.3559 62.8977 85.2071 62.7476C85.0397 62.5789 84.9583 62.3062 84.9628 61.9296C84.986 61.5718 85.0596 61.164 85.1837 60.7061C85.3078 60.2482 85.4636 59.7775 85.6511 59.2939C85.8498 58.7991 86.0391 58.351 86.219 57.9494C86.4101 57.5366 86.5693 57.1927 86.6967 56.9175C86.8427 56.6611 86.9269 56.5218 86.9493 56.4996C86.9942 56.4551 87.0747 56.3008 87.1909 56.0368C87.3257 55.7915 87.539 55.4125 87.831 54.8997C88.1416 54.4056 88.5513 53.7761 89.0601 53.011C89.5987 52.2536 90.2794 51.3367 91.1021 50.2603C91.203 50.1602 91.3598 50.0605 91.5726 49.9611C91.7853 49.8617 91.994 49.9152 92.1986 50.1215C92.459 50.384 92.5478 50.6866 92.465 51.0291C92.4008 51.3904 92.249 51.7642 92.0095 52.1506C91.7886 52.5557 91.523 52.9493 91.2127 53.3315C90.9135 53.7026 90.6629 54.0441 90.4609 54.3561C90.1766 54.7869 89.9165 55.175 89.6809 55.5204C89.4638 55.8845 89.2374 56.2392 89.0017 56.5845C88.7959 56.9375 88.5825 57.3166 88.3616 57.7217C88.1593 58.1455 87.942 58.6215 87.7096 59.1496L86.0341 63.0434Z" fill="black"/>
<path d="M97.2431 71.789C97.2393 71.83 97.215 71.8727 97.1701 71.9172C97.1029 71.9839 96.9183 71.9996 96.6163 71.9642C96.5157 71.9524 96.3219 71.9028 96.035 71.8153C95.7481 71.7278 95.3961 71.5747 94.979 71.356C94.5619 71.1372 94.0816 70.8323 93.5381 70.4413C93.0132 70.069 92.4439 69.5734 91.83 68.9545C91.4022 68.5232 91.0398 68.0456 90.7427 67.5218C90.4568 66.9869 90.2678 66.4489 90.1758 65.9077C90.0951 65.3553 90.1205 64.8093 90.2522 64.2694C90.3952 63.7184 90.6965 63.215 91.1561 62.7591C91.5933 62.3255 92.0955 62.0134 92.6627 61.8229C93.2299 61.6324 93.7987 61.5333 94.3692 61.5255C94.9583 61.5365 95.5136 61.6368 96.0352 61.8263C96.5567 62.0159 96.9849 62.2794 97.3197 62.617C97.6174 62.9171 97.8757 63.2561 98.0949 63.634C98.3438 64.0195 98.5331 64.3898 98.6628 64.7448C98.8111 65.1185 98.8868 65.4527 98.8899 65.7473C98.9041 66.0307 98.8384 66.2447 98.6927 66.3893C98.5245 66.5561 98.2205 66.5971 97.7808 66.5125C97.3596 66.4465 96.8938 66.3133 96.3834 66.1126C95.8843 65.9008 95.4076 65.6668 94.9533 65.4105C94.5102 65.1431 94.1863 64.9063 93.9817 64.7C93.8701 64.5875 93.7958 64.4565 93.7589 64.3071C93.7517 64.1654 93.793 64.0501 93.8827 63.9611C94.0396 63.8055 94.2746 63.7957 94.5875 63.9318C94.919 64.0866 95.2578 64.2714 95.6041 64.486C95.9616 64.6895 96.3024 64.8537 96.6265 64.9787C96.9692 65.1224 97.2302 65.1053 97.4096 64.9274C97.432 64.9052 97.4416 64.8027 97.4383 64.62C97.435 64.4373 97.2287 64.1396 96.8195 63.727C96.6335 63.5395 96.3523 63.3905 95.976 63.2801C95.6108 63.1586 95.2046 63.0965 94.7571 63.0939C94.3209 63.0801 93.8771 63.1482 93.4256 63.2984C92.9853 63.4375 92.5914 63.6793 92.2438 64.024C91.9524 64.3131 91.7726 64.6588 91.7046 65.0611C91.6552 65.4821 91.6859 65.9167 91.7967 66.3648C91.9188 66.8018 92.121 67.2523 92.4033 67.7163C92.6856 68.1804 93.0221 68.6093 93.4127 69.0031C93.6917 69.2845 94.023 69.5512 94.4064 69.8033C94.8197 70.063 95.2051 70.2947 95.5626 70.4981C95.9499 70.7093 96.2795 70.8846 96.5513 71.0242C96.853 71.1714 97.0318 71.2732 97.0876 71.3294C97.1434 71.3857 97.1824 71.4586 97.2045 71.5482C97.2453 71.6566 97.2582 71.7369 97.2431 71.789Z" fill="black"/>
<path d="M109.162 77.0794C109.083 77.1572 108.96 77.1677 108.792 77.1107C108.636 77.0427 108.467 76.9503 108.284 76.8337C108.102 76.717 107.925 76.5947 107.754 76.4669C107.594 76.328 107.467 76.2117 107.374 76.1179C107.095 75.8366 106.92 75.6379 106.85 75.5219C106.779 75.4059 106.716 75.3198 106.66 75.2635C106.195 74.7946 105.801 74.4418 105.477 74.205C105.153 73.9681 104.857 73.8153 104.589 73.7466C104.339 73.6966 104.108 73.7214 103.895 73.8208C103.712 73.9278 103.514 74.0869 103.301 74.2982C102.942 74.654 102.675 74.9563 102.499 75.2051C102.342 75.4726 102.215 75.6918 102.117 75.8627C102.039 76.0524 101.979 76.2049 101.937 76.3203C101.926 76.4433 101.887 76.5381 101.819 76.6048C101.73 76.6938 101.551 76.7039 101.282 76.6352C101.033 76.5852 100.843 76.4946 100.713 76.3633C100.489 76.1382 100.402 75.8152 100.452 75.3942C100.531 74.9808 100.668 74.5472 100.863 74.0935C101.088 73.6474 101.325 73.2256 101.576 72.8281C101.827 72.4307 102.036 72.1485 102.204 71.9818C102.395 71.7927 102.602 71.643 102.826 71.5325C103.061 71.4108 103.287 71.3357 103.504 71.3072C103.731 71.2675 103.94 71.2651 104.13 71.2998C104.32 71.3344 104.471 71.4081 104.582 71.5206C104.675 71.6144 104.727 71.7116 104.738 71.8123C104.761 71.902 104.762 71.9933 104.743 72.0864C104.736 72.1684 104.728 72.2504 104.72 72.3324C104.743 72.422 104.791 72.5043 104.865 72.5793C105.033 72.7481 105.353 72.97 105.826 73.2451C106.299 73.5201 106.805 73.9295 107.344 74.4734C107.847 74.9798 108.207 75.366 108.427 75.632C108.676 75.9057 108.893 76.1922 109.079 76.4916C109.124 76.559 109.161 76.6525 109.19 76.772C109.25 76.8991 109.24 77.0016 109.162 77.0794Z" fill="black"/>
</svg>
