<svg width="97" height="100" viewBox="0 0 97 100" fill="none" xmlns="http://www.w3.org/2000/svg">
<path fill-rule="evenodd" clip-rule="evenodd" d="M27.7921 3.26087C22.0738 3.26087 17.4382 7.88402 17.4382 13.587V22.2826C17.4382 23.1831 16.7063 23.913 15.8034 23.913C14.9005 23.913 14.1685 23.1831 14.1685 22.2826V13.587C14.1685 6.08309 20.268 0 27.7921 0H85.5562C85.7411 0 85.925 0.00437446 86.1078 0.013028C86.2862 0.00437861 86.4656 0 86.6461 0V0.0510879C92.4551 0.598435 97 5.47641 97 11.413V12.5C97 13.4005 96.2681 14.1304 95.3652 14.1304H79.0169V26.087C79.0169 26.9874 78.2849 27.7174 77.382 27.7174C76.4791 27.7174 75.7472 26.9874 75.7472 26.087V10.8696C75.7472 7.90712 76.9355 5.22147 78.8627 3.26087H27.7921ZM79.0169 10.8696C79.0169 6.84694 82.1469 3.55343 86.1106 3.27933C90.1864 3.55157 93.4441 6.80341 93.7125 10.8696H79.0169Z" fill="#040404"/>
<path d="M38.1355 36.8584L60.8432 14.6739L66.0162 11.9025L66.0349 11.9219C66.3341 12.2365 66.4832 12.6401 66.4831 13.0435V25C66.4831 25.9005 65.7512 26.6304 64.8483 26.6304C63.9454 26.6304 63.2135 25.9005 63.2135 25V16.923L39.2901 40.2951C38.6587 40.912 37.6501 40.9167 37.0129 40.3057L24 27.8269L7.69533 44.0877C7.05688 44.7244 6.02177 44.7244 5.38333 44.0877C4.74488 43.451 4.74488 42.4186 5.38333 41.7819L22.8215 24.3906C23.4511 23.7627 24.4688 23.7527 25.1106 24.3682L38.1355 36.8584Z" fill="#040404"/>
<path d="M60.8432 14.6739L66 12.5L66.0349 11.9219L65.5 11.5L64.8468 11.413H51.7697C50.8668 11.413 50.1348 12.143 50.1348 13.0435C50.1348 13.9439 50.8668 14.6739 51.7697 14.6739H60.8432Z" fill="#040404"/>
<path fill-rule="evenodd" clip-rule="evenodd" d="M77.382 33.6957C78.4968 33.6957 79.5893 33.791 80.6517 33.9741C89.1028 35.4301 95.6493 42.4327 96.386 51.087C96.4317 51.6244 96.4551 52.1682 96.4551 52.7174V54.3478H77.382V33.6957ZM80.6517 51.087V37.2943C87.2912 38.6873 92.396 44.237 93.1019 51.087H80.6517Z" fill="#040404"/>
<path fill-rule="evenodd" clip-rule="evenodd" d="M70.3272 41.7465C70.6561 42.0546 70.8427 42.4847 70.8427 42.9348V59.2391H86.6461C87.549 59.2391 88.2809 59.9691 88.2809 60.8696V61.413C88.2809 68.3826 84.2946 74.4237 78.4719 77.3922V89.6739C78.4719 95.3769 73.8363 100 68.118 100H15.8528C8.80664 100 2.92309 94.6415 2.28516 87.6432L2.18649 86.5607C2.1449 86.1044 2.29767 85.6518 2.60741 85.3136C2.91715 84.9753 3.35528 84.7826 3.81461 84.7826H14.7135V43.4783C14.7135 42.5778 15.4454 41.8478 16.3483 41.8478C17.2512 41.8478 17.9831 42.5778 17.9831 43.4783V84.7826H56.6742C57.577 84.7826 58.309 85.5126 58.309 86.413V88.0435C58.309 92.5458 61.9687 96.1956 66.4831 96.1956H70.8427L70.8475 96.1957C73.405 95.1298 75.2022 92.6112 75.2022 89.6739V78.6727C73.6432 79.1125 71.998 79.3478 70.2978 79.3478H68.6784C58.4371 79.3478 50.1348 71.0679 50.1348 60.8541C50.1348 50.5317 58.1825 41.9884 68.5126 41.3445L69.1059 41.3075C69.5563 41.2794 69.9983 41.4383 70.3272 41.7465ZM5.62844 88.0435H55.0393C55.0393 91.5268 56.6041 94.6457 59.0708 96.7391H15.8528C10.7337 96.7391 6.42198 93.0176 5.62844 88.0435ZM67.573 44.7101C59.523 45.7755 53.4045 52.6385 53.4045 60.8541C53.4045 69.267 60.2429 76.087 68.6784 76.087H70.2978C78.0572 76.087 84.4138 70.0966 84.9715 62.5H69.2079C68.305 62.5 67.573 61.77 67.573 60.8696V44.7101Z" fill="#040404"/>
<path d="M22.8876 53.8043C21.9847 53.8043 21.2528 54.5343 21.2528 55.4348C21.2528 56.3352 21.9847 57.0652 22.8876 57.0652H31.0618C31.9647 57.0652 32.6966 56.3352 32.6966 55.4348C32.6966 54.5343 31.9647 53.8043 31.0618 53.8043H22.8876Z" fill="#040404"/>
<path d="M21.2528 64.6739C21.2528 63.7734 21.9847 63.0435 22.8876 63.0435H41.4157C42.3186 63.0435 43.0506 63.7734 43.0506 64.6739C43.0506 65.5744 42.3186 66.3043 41.4157 66.3043H22.8876C21.9847 66.3043 21.2528 65.5744 21.2528 64.6739Z" fill="#040404"/>
<path d="M23.4326 72.8261C22.5297 72.8261 21.7978 73.5561 21.7978 74.4565C21.7978 75.357 22.5297 76.087 23.4326 76.087H41.4157C42.3186 76.087 43.0506 75.357 43.0506 74.4565C43.0506 73.5561 42.3186 72.8261 41.4157 72.8261H23.4326Z" fill="#040404"/>
<path d="M3.26966 47.8261C3.26966 48.7266 2.53772 49.4565 1.63483 49.4565C0.731939 49.4565 0 48.7266 0 47.8261C0 46.9256 0.731939 46.1957 1.63483 46.1957C2.53772 46.1957 3.26966 46.9256 3.26966 47.8261Z" fill="#040404"/>
<path d="M48.5 76.6304C49.4029 76.6304 50.1348 75.9005 50.1348 75C50.1348 74.0995 49.4029 73.3696 48.5 73.3696C47.5971 73.3696 46.8652 74.0995 46.8652 75C46.8652 75.9005 47.5971 76.6304 48.5 76.6304Z" fill="#040404"/>
</svg>
