<svg width="16" height="16" viewBox="0 0 16 16" fill="none" xmlns="http://www.w3.org/2000/svg">
<g clip-path="url(#clip0)">
<path d="M15.1169 16.0001C15.6046 16.0001 16 15.6047 16 15.117V0.883062C16 0.395312 15.6046 0 15.1169 0H0.883062C0.39525 0 0 0.395312 0 0.883062V15.117C0 15.6047 0.39525 16.0001 0.883062 16.0001H15.1169" fill="#395185"/>
<path d="M11.0396 16.0005V9.80443H13.1194L13.4308 7.38974H11.0396V5.84799C11.0396 5.14887 11.2338 4.67243 12.2364 4.67243L13.5151 4.67187V2.51218C13.2938 2.48274 12.5348 2.41699 11.6518 2.41699C9.80819 2.41699 8.54606 3.5423 8.54606 5.60893V7.38974H6.46094V9.80443H8.54606V16.0005H11.0396" fill="white"/>
</g>
<defs>
<clipPath id="clip0">
<rect width="16" height="16" fill="white"/>
</clipPath>
</defs>
</svg>
