<svg width="133" height="105" viewBox="0 0 133 105" fill="none" xmlns="http://www.w3.org/2000/svg">
<path d="M100.969 2.43928C109.107 3.21841 116.179 7.26219 120.286 10.8205C120.393 10.9133 120.402 11.0752 120.31 11.1826C120.217 11.2899 120.057 11.3021 119.95 11.2093C115.903 7.70482 108.929 3.71996 100.921 2.95326C92.8012 2.17586 83.5976 4.70383 75.2703 14.4489C75.1733 14.5625 75.0012 14.5689 74.8962 14.4628C65.4932 4.96471 55.4218 2.26991 46.7556 3.28554C38.0774 4.30259 30.7962 9.04118 26.9855 14.4303C26.8646 14.6013 26.7417 14.7742 26.6174 14.9492L26.6167 14.9503C24.1114 18.477 20.9994 22.8581 20.5479 29.85C20.0759 37.1603 22.5126 47.367 31.7145 62.4524C31.7886 62.5738 31.753 62.7354 31.633 62.8104C31.513 62.8854 31.3539 62.8454 31.2799 62.7241C22.0497 47.5925 19.5562 37.2768 20.0379 29.8164C20.499 22.6745 23.6868 18.1881 26.1945 14.659C26.3214 14.4804 26.4466 14.3042 26.5696 14.1302C30.467 8.61848 37.88 3.80599 46.6967 2.77271C55.3446 1.75921 65.3314 4.38233 74.6724 13.5161C74.8842 13.7232 75.2291 13.7102 75.4257 13.4884C83.7203 4.12887 92.864 1.66328 100.969 2.43928Z" fill="black"/>
<path d="M130.5 32.7387C130.467 38.5465 128.335 46.4024 121.548 57.2691C114.756 68.1427 104.32 78.6814 94.921 86.8517C85.5245 95.0196 77.1378 100.843 74.4287 102.276C74.3732 102.306 74.3089 102.313 74.2481 102.298C73.6968 102.159 72.9365 101.776 72.0281 101.221C71.1129 100.661 70.0253 99.9123 68.8132 99.0215C66.3884 97.2394 63.4529 94.88 60.3792 92.308C54.3198 87.2374 47.713 81.3315 43.4036 77.3712C43.2992 77.2752 43.2933 77.1135 43.3883 77.0081C43.4834 76.9027 43.6433 76.8935 43.7477 76.9895C48.0534 80.9463 54.6538 86.8465 60.7053 91.9104C63.7756 94.4796 66.7017 96.8312 69.1138 98.604C70.3201 99.4905 71.3948 100.23 72.2927 100.779C73.0272 101.228 73.6292 101.541 74.0817 101.706C74.2075 101.752 74.3421 101.739 74.4591 101.673C77.3755 100.046 85.4963 94.363 94.5876 86.4603C103.972 78.3033 114.363 67.8037 121.116 56.9936C127.872 46.1767 129.957 38.4152 129.989 32.7358C130.019 27.2245 128.117 23.6424 126.61 21.0879C126.538 20.9654 126.577 20.8072 126.698 20.7338C126.819 20.6605 126.976 20.6998 127.048 20.8222C128.573 23.4066 130.531 27.0871 130.5 32.7387Z" fill="black"/>
<path fill-rule="evenodd" clip-rule="evenodd" d="M11.6999 51.9686C11.5587 51.9686 11.4443 52.0842 11.4443 52.2267V55.8407C11.4443 56.1258 11.2155 56.357 10.9332 56.357H2.75555C2.61441 56.357 2.5 56.4725 2.5 56.6151V83.2034C2.5 83.346 2.61441 83.4615 2.75555 83.4615H10.6777C10.9599 83.4615 11.1888 83.6927 11.1888 83.9778V88.6243C11.1888 88.7669 11.3032 88.8825 11.4443 88.8825H20.3886C20.5298 88.8825 20.6442 88.7669 20.6442 88.6243V77.0081C20.6442 76.7229 20.873 76.4918 21.1553 76.4918H65.8769C66.1592 76.4918 66.388 76.7229 66.388 77.0081V88.6243C66.388 88.7669 66.5024 88.8825 66.6436 88.8825H76.6101C76.7512 88.8825 76.8656 88.7669 76.8656 88.6243V83.9778C76.8656 83.6927 77.0945 83.4615 77.3768 83.4615H86.0655C86.2067 83.4615 86.3211 83.346 86.3211 83.2034V56.6151C86.3211 56.4725 86.2067 56.357 86.0655 56.357H77.1212C76.9801 56.357 76.8656 56.2414 76.8656 56.0988V51.9686C76.8656 51.826 76.7512 51.7105 76.6101 51.7105H66.6436C66.5024 51.7105 66.388 51.826 66.388 51.9686V63.0686C66.388 63.3537 66.1592 63.5849 65.8769 63.5849H59.7437C59.6025 63.5849 59.4881 63.7004 59.4881 63.843C59.4881 63.9856 59.6025 64.1011 59.7437 64.1011H66.1325C66.4147 64.1011 66.6436 64.3323 66.6436 64.6174V75.4592C66.6436 75.7444 66.4147 75.9755 66.1325 75.9755H20.3886C20.2475 75.9755 20.1331 76.0911 20.1331 76.2337V87.8499C20.1331 88.135 19.9043 88.3662 19.622 88.3662H12.211C11.9287 88.3662 11.6999 88.135 11.6999 87.8499V83.2034C11.6999 83.0608 11.5855 82.9453 11.4443 82.9453H3.52221C3.23993 82.9453 3.0111 82.7141 3.0111 82.429V57.3895C3.0111 57.1044 3.23993 56.8732 3.52221 56.8732H10.9332C11.2155 56.8732 11.4443 57.1044 11.4443 57.3895V61.0035C11.4443 61.146 11.5587 61.2616 11.6999 61.2616C11.841 61.2616 11.9554 61.146 11.9554 61.0035V53.0012C11.9554 52.716 12.1843 52.4849 12.4665 52.4849H20.3886C20.6709 52.4849 20.8997 52.716 20.8997 53.0012V64.1011C20.8997 64.2437 21.0142 64.3593 21.1553 64.3593H49.7771C49.9183 64.3593 50.0327 64.2437 50.0327 64.1011C50.0327 63.9586 49.9183 63.843 49.7771 63.843H21.922C21.6397 63.843 21.4109 63.6118 21.4109 63.3267V52.2267C21.4109 52.0842 21.2964 51.9686 21.1553 51.9686H11.6999ZM76.3545 87.8499C76.3545 88.135 76.1257 88.3662 75.8434 88.3662H67.4102C67.1279 88.3662 66.8991 88.135 66.8991 87.8499V77.9116C66.8991 77.8403 66.9563 77.7825 67.0269 77.7825C67.0975 77.7825 67.1547 77.7247 67.1547 77.6534V63.7139C67.1547 63.6426 67.0975 63.5849 67.0269 63.5849C66.9563 63.5849 66.8991 63.5271 66.8991 63.4558V52.743C66.8991 52.4579 67.1279 52.2267 67.4102 52.2267H75.8434C76.1257 52.2267 76.3545 52.4579 76.3545 52.743V87.8499ZM77.3768 82.9453C77.0945 82.9453 76.8656 82.7141 76.8656 82.429V57.3895C76.8656 57.1044 77.0945 56.8732 77.3768 56.8732H85.2989C85.5811 56.8732 85.81 57.1044 85.81 57.3895V82.429C85.81 82.7141 85.5811 82.9453 85.2989 82.9453H77.3768Z" fill="black"/>
<path d="M11.6999 70.8127C11.5587 70.8127 11.4443 70.9283 11.4443 71.0709V81.9127C11.4443 82.0553 11.5587 82.1708 11.6999 82.1708C11.841 82.1708 11.9554 82.0553 11.9554 81.9127V71.0709C11.9554 70.9283 11.841 70.8127 11.6999 70.8127Z" fill="black"/>
<path d="M100.969 2.43928C109.107 3.21841 116.179 7.26219 120.286 10.8205C120.393 10.9133 120.402 11.0752 120.31 11.1826C120.217 11.2899 120.057 11.3021 119.95 11.2093C115.903 7.70482 108.929 3.71996 100.921 2.95326C92.8012 2.17586 83.5976 4.70383 75.2703 14.4489C75.1733 14.5625 75.0012 14.5689 74.8962 14.4628C65.4932 4.96471 55.4218 2.26991 46.7556 3.28554C38.0774 4.30259 30.7962 9.04118 26.9855 14.4303C26.8646 14.6013 26.7417 14.7742 26.6174 14.9492L26.6167 14.9503C24.1114 18.477 20.9994 22.8581 20.5479 29.85C20.0759 37.1603 22.5126 47.367 31.7145 62.4524C31.7886 62.5738 31.753 62.7354 31.633 62.8104C31.513 62.8854 31.3539 62.8454 31.2799 62.7241C22.0497 47.5925 19.5562 37.2768 20.0379 29.8164C20.499 22.6745 23.6868 18.1881 26.1945 14.659C26.3214 14.4804 26.4466 14.3042 26.5696 14.1302C30.467 8.61848 37.88 3.80599 46.6967 2.77271C55.3446 1.75921 65.3314 4.38233 74.6724 13.5161C74.8842 13.7232 75.2291 13.7102 75.4257 13.4884C83.7203 4.12887 92.864 1.66328 100.969 2.43928Z" stroke="black" stroke-width="4" stroke-linecap="round" stroke-linejoin="round"/>
<path d="M130.5 32.7387C130.467 38.5465 128.335 46.4024 121.548 57.2691C114.756 68.1427 104.32 78.6814 94.921 86.8517C85.5245 95.0196 77.1378 100.843 74.4287 102.276C74.3732 102.306 74.3089 102.313 74.2481 102.298C73.6968 102.159 72.9365 101.776 72.0281 101.221C71.1129 100.661 70.0253 99.9123 68.8132 99.0215C66.3884 97.2394 63.4529 94.88 60.3792 92.308C54.3198 87.2374 47.713 81.3315 43.4036 77.3712C43.2992 77.2752 43.2933 77.1135 43.3883 77.0081C43.4834 76.9027 43.6433 76.8935 43.7477 76.9895C48.0534 80.9463 54.6538 86.8465 60.7053 91.9104C63.7756 94.4796 66.7017 96.8312 69.1138 98.604C70.3201 99.4905 71.3948 100.23 72.2927 100.779C73.0272 101.228 73.6292 101.541 74.0817 101.706C74.2075 101.752 74.3421 101.739 74.4591 101.673C77.3755 100.046 85.4963 94.363 94.5876 86.4603C103.972 78.3033 114.363 67.8037 121.116 56.9936C127.872 46.1767 129.957 38.4152 129.989 32.7358C130.019 27.2245 128.117 23.6424 126.61 21.0879C126.538 20.9654 126.577 20.8072 126.698 20.7338C126.819 20.6605 126.976 20.6998 127.048 20.8222C128.573 23.4066 130.531 27.0871 130.5 32.7387Z" stroke="black" stroke-width="4" stroke-linecap="round" stroke-linejoin="round"/>
<path fill-rule="evenodd" clip-rule="evenodd" d="M11.6999 51.9686C11.5587 51.9686 11.4443 52.0842 11.4443 52.2267V55.8407C11.4443 56.1258 11.2155 56.357 10.9332 56.357H2.75555C2.61441 56.357 2.5 56.4725 2.5 56.6151V83.2034C2.5 83.346 2.61441 83.4615 2.75555 83.4615H10.6777C10.9599 83.4615 11.1888 83.6927 11.1888 83.9778V88.6243C11.1888 88.7669 11.3032 88.8825 11.4443 88.8825H20.3886C20.5298 88.8825 20.6442 88.7669 20.6442 88.6243V77.0081C20.6442 76.7229 20.873 76.4918 21.1553 76.4918H65.8769C66.1592 76.4918 66.388 76.7229 66.388 77.0081V88.6243C66.388 88.7669 66.5024 88.8825 66.6436 88.8825H76.6101C76.7512 88.8825 76.8656 88.7669 76.8656 88.6243V83.9778C76.8656 83.6927 77.0945 83.4615 77.3768 83.4615H86.0655C86.2067 83.4615 86.3211 83.346 86.3211 83.2034V56.6151C86.3211 56.4725 86.2067 56.357 86.0655 56.357H77.1212C76.9801 56.357 76.8656 56.2414 76.8656 56.0988V51.9686C76.8656 51.826 76.7512 51.7105 76.6101 51.7105H66.6436C66.5024 51.7105 66.388 51.826 66.388 51.9686V63.0686C66.388 63.3537 66.1592 63.5849 65.8769 63.5849H59.7437C59.6025 63.5849 59.4881 63.7004 59.4881 63.843C59.4881 63.9856 59.6025 64.1011 59.7437 64.1011H66.1325C66.4147 64.1011 66.6436 64.3323 66.6436 64.6174V75.4592C66.6436 75.7444 66.4147 75.9755 66.1325 75.9755H20.3886C20.2475 75.9755 20.1331 76.0911 20.1331 76.2337V87.8499C20.1331 88.135 19.9043 88.3662 19.622 88.3662H12.211C11.9287 88.3662 11.6999 88.135 11.6999 87.8499V83.2034C11.6999 83.0608 11.5855 82.9453 11.4443 82.9453H3.52221C3.23993 82.9453 3.0111 82.7141 3.0111 82.429V57.3895C3.0111 57.1044 3.23993 56.8732 3.52221 56.8732H10.9332C11.2155 56.8732 11.4443 57.1044 11.4443 57.3895V61.0035C11.4443 61.146 11.5587 61.2616 11.6999 61.2616C11.841 61.2616 11.9554 61.146 11.9554 61.0035V53.0012C11.9554 52.716 12.1843 52.4849 12.4665 52.4849H20.3886C20.6709 52.4849 20.8997 52.716 20.8997 53.0012V64.1011C20.8997 64.2437 21.0142 64.3593 21.1553 64.3593H49.7771C49.9183 64.3593 50.0327 64.2437 50.0327 64.1011C50.0327 63.9586 49.9183 63.843 49.7771 63.843H21.922C21.6397 63.843 21.4109 63.6118 21.4109 63.3267V52.2267C21.4109 52.0842 21.2964 51.9686 21.1553 51.9686H11.6999ZM76.3545 87.8499C76.3545 88.135 76.1257 88.3662 75.8434 88.3662H67.4102C67.1279 88.3662 66.8991 88.135 66.8991 87.8499V77.9116C66.8991 77.8403 66.9563 77.7825 67.0269 77.7825C67.0975 77.7825 67.1547 77.7247 67.1547 77.6534V63.7139C67.1547 63.6426 67.0975 63.5849 67.0269 63.5849C66.9563 63.5849 66.8991 63.5271 66.8991 63.4558V52.743C66.8991 52.4579 67.1279 52.2267 67.4102 52.2267H75.8434C76.1257 52.2267 76.3545 52.4579 76.3545 52.743V87.8499ZM77.3768 82.9453C77.0945 82.9453 76.8656 82.7141 76.8656 82.429V57.3895C76.8656 57.1044 77.0945 56.8732 77.3768 56.8732H85.2989C85.5811 56.8732 85.81 57.1044 85.81 57.3895V82.429C85.81 82.7141 85.5811 82.9453 85.2989 82.9453H77.3768Z" stroke="black" stroke-width="4" stroke-linecap="round" stroke-linejoin="round"/>
<path d="M11.6999 70.8127C11.5587 70.8127 11.4443 70.9283 11.4443 71.0709V81.9127C11.4443 82.0553 11.5587 82.1708 11.6999 82.1708C11.841 82.1708 11.9554 82.0553 11.9554 81.9127V71.0709C11.9554 70.9283 11.841 70.8127 11.6999 70.8127Z" stroke="black" stroke-width="4" stroke-linecap="round" stroke-linejoin="round"/>
</svg>
