<svg width="329" height="379" viewBox="0 0 329 379" fill="none" xmlns="http://www.w3.org/2000/svg">
<path d="M164.487 1L327.176 94.9158L328 283.119L327.821 283.015L164.795 377.125V377.304L164.641 377.214L164.487 377.304V377.125L2.24027 283.465L1.7716 283.736V283.195L1.37252 282.964L1.7716 282.734L1.7716 96.0294L1 95.584L1.7716 95.1386V95.0572L1.84205 95.0979L164.423 1.24472M164.365 163.301L186.64 176.204L186.753 202.062L186.729 202.048L164.407 214.978V215.003L164.386 214.99L164.365 215.003V214.978L142.15 202.11L142.086 202.147V202.073L142.031 202.041L142.086 202.009V176.357L141.98 176.296L142.086 176.235V176.224L142.096 176.229L164.356 163.335M164.497 146.245L203.081 168.46L203.276 212.978L203.234 212.954L164.57 235.215V235.257L164.533 235.236L164.497 235.257V235.215L126.018 213.06L125.907 213.124V212.996L125.812 212.942L125.907 212.887V168.723L125.724 168.618L125.907 168.513V168.493L125.923 168.503L164.482 146.303M164.496 130.254L215.278 159.653L215.535 218.566L215.48 218.534L164.592 247.993V248.049L164.544 248.021L164.496 248.049V247.993L113.852 218.675L113.705 218.76V218.59L113.581 218.518L113.705 218.446V160.002L113.465 159.862L113.705 159.723V159.697L113.727 159.71L164.476 130.331M164.495 117.729L227.741 154.244L228.061 227.419L227.992 227.379L164.615 263.97V264.039L164.555 264.005L164.495 264.039V263.97L101.421 227.554L101.239 227.659V227.449L101.084 227.359L101.239 227.27V154.677L100.939 154.504L101.239 154.331V154.299L101.266 154.315L164.47 117.824M164.36 98.8069L243.915 144.767L244.318 236.869L244.23 236.819L164.511 282.874V282.961L164.436 282.918L164.36 282.961V282.874L85.0221 237.039L84.793 237.171V236.906L84.5978 236.794L84.793 236.681V145.312L84.4156 145.094L84.793 144.876V144.836L84.8274 144.856L164.329 98.9267M164.359 82.5502L256.643 135.827L257.11 242.591L257.009 242.532L164.534 295.919V296.02L164.447 295.969L164.359 296.02V295.919L72.327 242.787L72.0612 242.941V242.634L71.8348 242.503L72.0612 242.372V136.459L71.6235 136.206L72.0612 135.953V135.907L72.1011 135.93L164.323 82.689M164.358 63.0954L273.348 126.016L273.9 252.107L273.78 252.038L164.565 315.089V315.208L164.461 315.148L164.358 315.208V315.089L55.6646 252.339L55.3507 252.52V252.158L55.0833 252.003L55.3507 251.849V126.762L54.8337 126.464L55.3507 126.166V126.111L55.3979 126.138L164.315 63.2594M164.49 43.9071L290.053 116.406L290.689 261.69L290.551 261.61L164.728 334.259V334.396L164.609 334.328L164.49 334.396V334.259L39.2678 261.957L38.906 262.166V261.749L38.598 261.571L38.906 261.393V117.266L38.3105 116.922L38.906 116.578V116.515L38.9604 116.546L164.44 44.096M164.355 22.3203L308.614 105.594L309.345 272.471L309.186 272.379L164.629 355.825V355.983L164.492 355.904L164.355 355.983V355.825L20.4885 272.778L20.0729 273.018V272.538L19.7191 272.334L20.0729 272.13L20.0729 106.582L19.3888 106.187L20.0729 105.792V105.72L20.1354 105.756L164.298 22.5373" stroke="black"/>
</svg>
