<svg width="104" height="36" viewBox="0 0 104 36" fill="none" xmlns="http://www.w3.org/2000/svg">
<path d="M7.92188 29.2813H19.6641L18.6562 35H0.210938L6.11719 0.875009H12.8438L7.92188 29.2813Z" fill="black"/>
<path d="M33.0469 35.4688C30.0469 35.4063 27.6641 34.4219 25.8984 32.5156C24.1484 30.6094 23.1953 27.9609 23.0391 24.5703C22.9766 23.3984 23.0234 22.2109 23.1797 21.0078L24.0469 15.3359C24.5 12.3047 25.3828 9.6172 26.6953 7.27345C28.0078 4.9297 29.6406 3.18751 31.5938 2.04688C33.5469 0.906259 35.75 0.359384 38.2031 0.406259C41.2344 0.468759 43.6094 1.50782 45.3281 3.52345C47.0625 5.52345 47.9922 8.26563 48.1172 11.75C48.1484 13.0625 48.0781 14.3047 47.9062 15.4766L47.1328 20.7031C46.4297 25.3906 44.8438 29.0469 42.375 31.6719C39.9219 34.2813 36.8125 35.5469 33.0469 35.4688ZM41.1797 15.2422C41.3672 13.6328 41.4609 12.3906 41.4609 11.5156C41.3828 8.03126 40.125 6.2422 37.6875 6.14845C35.8125 6.07032 34.2969 6.78126 33.1406 8.28126C32 9.76563 31.2031 12.1016 30.75 15.2891L29.9297 21.0313C29.7422 22.5781 29.6719 23.7891 29.7188 24.6641C29.7969 27.9453 31.0859 29.6406 33.5859 29.75C35.3672 29.8125 36.8281 29.1563 37.9688 27.7813C39.1094 26.4063 39.9062 24.1563 40.3594 21.0313L41.1797 15.2422Z" fill="black"/>
<path d="M73.0781 31.1328C71.8125 32.5391 70.1641 33.625 68.1328 34.3906C66.1016 35.1406 63.9219 35.5 61.5938 35.4688C59.5469 35.4531 57.7734 35.0078 56.2734 34.1328C54.7734 33.2422 53.6094 31.9609 52.7812 30.2891C51.9688 28.6016 51.5312 26.6641 51.4688 24.4766C51.4219 23.2891 51.4766 22.0781 51.6328 20.8438L52.4766 15.1953C53.1953 10.4453 54.7422 6.77345 57.1172 4.1797C59.4922 1.58595 62.5859 0.328134 66.3984 0.406259C69.6484 0.468759 72.0938 1.45313 73.7344 3.35938C75.3906 5.25001 76.2344 8.0547 76.2656 11.7734L69.7266 11.75L69.6562 9.87501C69.4531 7.43751 68.2578 6.1797 66.0703 6.10157C62.8359 5.97657 60.7109 8.10938 59.6953 12.5L59.3438 14.2578L58.4062 20.8438C58.2031 22.3438 58.125 23.625 58.1719 24.6875C58.25 26.4375 58.6406 27.7109 59.3438 28.5078C60.0625 29.2891 61.0703 29.6953 62.3672 29.7266C63.5859 29.7578 64.9453 29.3594 66.4453 28.5313L67.6406 22.25H62.9297L63.8438 17.0469H75.2344L73.0781 31.1328Z" fill="black"/>
<path d="M88.875 35.4688C85.875 35.4063 83.4922 34.4219 81.7266 32.5156C79.9766 30.6094 79.0234 27.9609 78.8672 24.5703C78.8047 23.3984 78.8516 22.2109 79.0078 21.0078L79.875 15.3359C80.3281 12.3047 81.2109 9.6172 82.5234 7.27345C83.8359 4.9297 85.4688 3.18751 87.4219 2.04688C89.375 0.906259 91.5781 0.359384 94.0312 0.406259C97.0625 0.468759 99.4375 1.50782 101.156 3.52345C102.891 5.52345 103.82 8.26563 103.945 11.75C103.977 13.0625 103.906 14.3047 103.734 15.4766L102.961 20.7031C102.258 25.3906 100.672 29.0469 98.2031 31.6719C95.75 34.2813 92.6406 35.5469 88.875 35.4688ZM97.0078 15.2422C97.1953 13.6328 97.2891 12.3906 97.2891 11.5156C97.2109 8.03126 95.9531 6.2422 93.5156 6.14845C91.6406 6.07032 90.125 6.78126 88.9688 8.28126C87.8281 9.76563 87.0312 12.1016 86.5781 15.2891L85.7578 21.0313C85.5703 22.5781 85.5 23.7891 85.5469 24.6641C85.625 27.9453 86.9141 29.6406 89.4141 29.75C91.1953 29.8125 92.6562 29.1563 93.7969 27.7813C94.9375 26.4063 95.7344 24.1563 96.1875 21.0313L97.0078 15.2422Z" fill="black"/>
</svg>
